# xmcd
#
# Track frame offsets:
#	150
#	11487
#	26405
#	39537
#	55287
#	66012
#	81762
#	99982
#	121440
#	135835
#	151212
#	172062
#	185785
#	202735
#	212567
#	228612
#	246910
#	267912
#
# Disc length: 3793 seconds
#
# Revision: 1
# Processed by: cddbd v1.4PL0 Copyright (c) Steve Scherf et al.
# Submitted via: audiograbber 1.80.04
#
DISCID=ef0ecf12
DTITLE=Otis Spann - Best of the Vanguard Years
DYEAR=1900
DGENRE=
TTITLE0=Marie
TTITLE1=Burning Fire
TTITLE2=S. P. Blues
TTITLE3=Sometimes I Wonder
TTITLE4=Spann's Stomp
TTITLE5=Home to Mississippi
TTITLE6=Blues is a Botheration
TTITLE7=You Said You'd Be On Time
TTITLE8=Cryin' Time
TTITLE9=Blind Man
TTITLE10=Some Day
TTITLE11=Twisted Snake
TTITLE12=Green Flowers
TTITLE13=The New Boogaloo
TTITLE14=Mule Kicking in my Stall
TTITLE15=Blues Jam
TTITLE16=He's Got the Whole World in his Hands
TTITLE17=My God
EXTD=
EXTT0=
EXTT1=
EXTT2=
EXTT3=
EXTT4=
EXTT5=
EXTT6=
EXTT7=
EXTT8=
EXTT9=
EXTT10=
EXTT11=
EXTT12=
EXTT13=
EXTT14=
EXTT15=
EXTT16=
EXTT17=
PLAYORDER=
